<?xml version="1.0" standalone="no"?>
<!DOCTYPE svg PUBLIC "-//W3C//DTD SVG 20010904//EN"
 "http://www.w3.org/TR/2001/REC-SVG-20010904/DTD/svg10.dtd">
<svg version="1.0" xmlns="http://www.w3.org/2000/svg"
 width="512.000000pt" height="512.000000pt" viewBox="0 0 512.000000 512.000000"
 preserveAspectRatio="xMidYMid meet">
<metadata>
Created by potrace 1.14, written by Peter Selinger 2001-2017
</metadata>
<g transform="translate(0.000000,512.000000) scale(0.100000,-0.100000)"
fill="#000000" stroke="none">
<path d="M2438 4855 c-3 -3 -34 -8 -69 -10 -35 -3 -89 -7 -119 -11 -30 -4 -65
-7 -77 -7 -13 -1 -23 -4 -23 -8 0 -4 -8 -6 -17 -4 -10 1 -22 0 -28 -4 -5 -3
-18 -6 -27 -7 -10 -1 -20 -3 -23 -4 -3 -1 -14 -4 -25 -5 -11 -1 -21 -3 -22 -5
-2 -1 -10 -3 -18 -5 -8 -2 -26 -7 -40 -11 -14 -3 -35 -7 -48 -8 -12 -2 -27 -7
-33 -13 -7 -7 -18 -9 -25 -6 -8 3 -14 -1 -14 -8 0 -7 -3 -10 -6 -6 -4 3 -22 0
-42 -9 -19 -8 -37 -12 -40 -9 -3 3 -12 -1 -21 -9 -9 -8 -25 -16 -36 -18 -11
-1 -26 -9 -33 -16 -8 -7 -18 -10 -23 -7 -5 4 -9 1 -9 -4 0 -6 -3 -10 -7 -9
-12 4 -113 -44 -113 -53 0 -4 -9 -6 -20 -4 -13 2 -20 -2 -20 -11 0 -8 -4 -13
-9 -10 -5 3 -20 -3 -33 -14 -14 -11 -27 -17 -30 -15 -3 3 -13 -4 -23 -15 -10
-11 -24 -20 -32 -20 -7 0 -22 -9 -33 -20 -12 -12 -25 -18 -30 -15 -6 4 -10 -1
-10 -10 0 -9 -4 -13 -10 -10 -5 3 -10 1 -10 -6 0 -7 -3 -9 -7 -6 -3 4 -12 -2
-20 -13 -8 -11 -20 -20 -27 -20 -8 0 -16 -7 -20 -15 -3 -8 -9 -14 -13 -13 -8
3 -17 -5 -76 -57 -14 -13 -30 -25 -36 -26 -5 -2 14 -29 44 -61 29 -31 56 -54
59 -50 3 3 6 0 6 -6 0 -6 23 -33 50 -61 l51 -49 32 30 c18 16 52 44 77 61 25
17 47 34 48 39 2 4 10 8 18 8 8 0 14 4 14 9 0 5 9 13 21 16 12 4 30 14 40 24
11 9 23 16 27 17 19 2 41 17 37 24 -3 5 5 6 17 2 14 -3 19 -2 14 6 -5 8 0 12
13 12 12 0 21 4 21 10 0 5 3 9 8 8 4 -1 17 3 30 10 12 7 22 9 22 5 0 -4 4 -2
9 5 4 7 16 14 25 16 10 1 22 9 27 17 5 8 9 10 9 6 0 -4 10 -2 23 5 12 6 29 13
37 14 8 1 31 9 51 17 20 9 39 13 43 10 3 -4 6 -1 6 6 0 7 7 11 15 8 8 -4 17
-2 20 3 4 6 16 10 29 10 12 0 26 3 30 8 4 4 11 7 14 8 4 0 30 4 57 9 28 5 53
8 58 7 4 -1 7 3 7 9 0 6 8 8 18 5 9 -3 24 -1 32 4 9 6 20 5 29 -3 12 -9 13 -9
7 1 -5 8 1 12 21 13 65 3 79 5 90 12 6 4 15 3 18 -3 5 -8 11 -7 22 1 12 10 16
10 24 -2 5 -8 9 -9 9 -3 0 13 237 14 257 1 6 -4 14 -3 18 3 4 6 10 8 15 5 5
-3 37 -8 72 -11 35 -3 70 -7 78 -10 8 -3 33 -8 55 -10 22 -3 58 -10 80 -16 22
-6 45 -12 50 -13 6 -1 12 -3 15 -4 3 -2 18 -5 35 -7 16 -3 32 -8 35 -12 3 -4
12 -8 20 -10 38 -8 146 -47 151 -55 3 -5 10 -9 15 -9 5 0 19 -4 32 -9 13 -5
27 -9 31 -9 4 0 12 -5 19 -12 6 -6 18 -13 27 -14 8 -1 28 -12 45 -24 16 -12
34 -18 40 -15 5 3 10 2 10 -3 0 -5 12 -15 27 -23 15 -8 35 -20 43 -27 8 -7 18
-11 21 -10 3 2 13 -4 22 -12 30 -28 46 -40 51 -40 10 0 105 -74 151 -117 13
-13 26 -23 29 -23 2 0 39 -34 81 -75 43 -41 75 -75 73 -75 -3 0 13 -20 36 -43
46 -49 61 -67 96 -117 13 -19 30 -41 37 -48 7 -7 13 -17 13 -21 0 -4 9 -17 20
-29 12 -12 18 -22 14 -22 -4 0 0 -8 8 -17 24 -28 88 -143 88 -158 0 -7 5 -15
11 -17 5 -2 11 -11 12 -20 2 -9 9 -24 17 -34 8 -9 14 -20 14 -23 -2 -7 12 -45
33 -88 8 -18 12 -37 8 -42 -3 -6 -2 -11 4 -11 9 0 27 -56 23 -72 -1 -5 2 -8 8
-8 5 0 10 -13 10 -28 0 -16 3 -32 7 -36 4 -3 8 -12 9 -19 2 -7 6 -23 9 -37 4
-14 7 -33 7 -42 -1 -10 3 -18 7 -18 4 0 7 -16 6 -35 -1 -20 2 -38 6 -41 5 -3
9 -25 9 -49 0 -24 5 -47 10 -50 8 -5 7 -11 -1 -21 -9 -11 -9 -14 1 -14 10 0
10 -3 0 -15 -7 -8 -8 -15 -3 -15 5 0 9 -36 9 -81 -1 -44 3 -83 8 -86 4 -3 2
-10 -5 -15 -11 -7 -11 -11 -1 -15 6 -2 9 -10 6 -15 -4 -6 -8 -38 -8 -72 -1
-34 -5 -67 -9 -73 -5 -8 -3 -13 3 -13 7 0 8 -6 2 -17 -5 -10 -10 -36 -11 -58
-1 -22 -7 -42 -13 -46 -7 -4 -6 -8 3 -11 11 -4 11 -8 3 -19 -6 -8 -10 -22 -9
-32 2 -9 -1 -17 -6 -17 -4 0 -6 -6 -3 -14 3 -8 1 -17 -4 -20 -5 -3 -8 -17 -7
-31 2 -14 -1 -25 -5 -25 -5 0 -7 -9 -5 -20 2 -11 0 -22 -6 -25 -26 -17 -4 -42
64 -74 40 -19 79 -36 87 -37 8 -2 16 -8 18 -14 2 -5 8 -8 13 -4 5 3 9 0 9 -7
0 -7 3 -10 6 -7 3 4 17 0 32 -8 25 -12 54 -4 50 14 -1 4 4 26 11 50 6 23 9 48
5 54 -4 7 -3 8 4 4 8 -5 12 1 12 18 0 14 4 27 8 30 4 2 7 25 7 50 -1 24 3 43
7 40 7 -5 11 24 11 79 0 9 2 17 6 17 3 0 7 19 8 43 1 23 4 71 7 107 5 54 6
260 3 363 0 15 -4 27 -9 27 -5 0 -4 8 1 18 6 11 6 24 0 35 -6 9 -7 17 -3 17 3
0 1 7 -6 15 -9 11 -9 15 -1 15 7 0 10 4 7 8 -3 5 -8 24 -11 42 -3 19 -11 41
-18 49 -10 12 -9 13 2 6 11 -6 13 -4 7 11 -5 10 -9 28 -11 39 -1 11 -3 20 -4
20 -4 0 -11 37 -14 67 -1 16 -4 28 -7 28 -3 0 -6 8 -7 18 -1 9 -9 38 -18 65
-9 26 -13 53 -9 59 4 7 3 8 -4 4 -11 -6 -17 12 -13 37 0 4 -4 7 -10 7 -6 0 -9
9 -6 20 3 11 1 20 -4 20 -5 0 -9 5 -9 11 0 12 -18 56 -54 128 -11 25 -21 47
-22 50 -3 22 -36 81 -45 81 -5 0 -8 4 -5 9 3 5 -3 19 -13 32 -10 13 -16 30
-14 37 3 6 -2 12 -11 12 -9 0 -15 3 -14 8 2 12 -15 45 -34 64 -10 10 -18 24
-18 32 0 8 -4 16 -8 18 -5 2 -23 26 -42 53 -18 28 -36 52 -39 55 -4 3 -18 21
-33 40 -14 19 -36 45 -47 58 -12 12 -19 22 -16 22 3 0 0 6 -7 14 -7 8 -16 12
-20 9 -5 -2 -8 0 -8 5 0 15 -116 132 -131 132 -7 0 -10 3 -6 6 3 3 -15 24 -41
46 -26 22 -61 52 -77 66 -17 15 -47 38 -68 52 -20 14 -37 28 -37 33 0 4 -7 7
-15 7 -8 0 -15 5 -15 10 0 6 -7 10 -15 10 -8 0 -15 5 -15 10 0 6 -7 10 -15 10
-8 0 -15 5 -15 10 0 6 -4 10 -9 10 -9 0 -113 61 -136 80 -8 6 -18 9 -24 6 -5
-3 -11 0 -14 8 -3 8 -19 17 -36 21 -17 4 -31 10 -31 14 0 7 -72 36 -79 32 -2
-2 -7 2 -11 9 -4 6 -13 12 -21 13 -8 2 -20 6 -26 10 -7 5 -23 10 -35 12 -13 3
-24 9 -26 15 -2 5 -8 10 -13 10 -6 0 -8 -4 -5 -8 3 -5 -16 1 -41 14 -26 12
-57 21 -69 19 -13 -1 -21 2 -18 6 5 9 -5 12 -38 12 -10 0 -18 4 -18 8 0 5 -3
8 -7 8 -5 -1 -10 0 -13 1 -7 2 -51 10 -70 11 -8 1 -19 5 -25 9 -5 3 -26 7 -45
9 -19 1 -37 6 -41 12 -5 8 -9 8 -13 0 -4 -6 -13 -8 -19 -4 -7 4 -21 9 -32 10
-11 1 -40 5 -65 8 -25 4 -62 7 -82 7 -21 1 -36 4 -33 7 2 4 -5 7 -16 7 -10 0
-19 -4 -19 -8 0 -4 -6 -5 -12 -3 -28 11 -168 11 -168 1 0 -6 -4 -5 -9 3 -6 10
-10 10 -16 1 -5 -9 -9 -9 -14 -1 -4 6 -10 9 -13 6z"/>
<path d="M2470 4521 c-19 -3 -63 -6 -97 -6 -35 1 -63 -2 -63 -6 0 -3 -10 -5
-22 -5 -13 1 -31 -1 -40 -6 -10 -5 -20 -4 -24 3 -5 8 -9 8 -14 -1 -4 -6 -22
-13 -41 -15 -19 -2 -34 -4 -34 -5 0 -1 -7 -3 -15 -5 -40 -8 -86 -16 -97 -17
-7 -1 -13 -6 -13 -11 0 -5 -9 -7 -20 -4 -11 3 -26 0 -33 -6 -6 -7 -19 -13 -27
-14 -33 -4 -63 -13 -75 -23 -6 -5 -24 -11 -39 -12 -14 -1 -26 -5 -26 -9 0 -6
-78 -42 -95 -43 -5 -1 -16 -7 -23 -14 -8 -7 -18 -10 -23 -7 -5 4 -9 2 -9 -3 0
-9 -50 -37 -62 -34 -5 1 -8 -3 -8 -8 0 -6 -7 -10 -15 -10 -8 0 -15 -5 -15 -11
0 -5 -4 -8 -9 -5 -4 3 -16 -3 -26 -14 -10 -11 -25 -20 -33 -20 -8 0 -25 -11
-38 -25 -13 -14 -27 -25 -31 -25 -5 0 -16 -7 -26 -15 -10 -9 -23 -13 -29 -9
-6 4 -8 3 -5 -3 4 -6 -10 -23 -31 -39 -20 -15 -44 -35 -53 -43 -32 -31 -59
-51 -69 -51 -6 0 -9 -3 -7 -8 3 -10 -40 -52 -55 -52 -6 0 -9 -3 -5 -6 7 -8
-17 -34 -32 -34 -6 0 -10 -3 -9 -7 3 -8 -34 -55 -64 -82 -10 -8 -18 -21 -18
-29 0 -7 -4 -10 -10 -7 -5 3 -10 1 -10 -5 0 -6 -4 -16 -10 -23 -48 -59 -59
-75 -53 -81 3 -3 2 -6 -4 -6 -12 0 -58 -70 -55 -82 1 -5 -5 -8 -14 -8 -8 0
-13 -4 -10 -8 3 -5 -6 -25 -20 -46 -14 -20 -23 -40 -20 -45 3 -5 -1 -12 -10
-15 -8 -3 -12 -10 -9 -16 3 -5 1 -10 -4 -10 -6 0 -11 -4 -11 -9 0 -5 -9 -30
-20 -55 -11 -26 -18 -48 -17 -50 1 -1 -4 -10 -12 -19 -7 -10 -10 -17 -7 -17 4
0 0 -7 -9 -16 -11 -11 -13 -20 -5 -28 5 -7 6 -17 2 -21 -4 -5 -2 -5 4 -2 13 7
94 -13 94 -24 0 -4 9 -6 20 -4 11 2 20 0 20 -6 0 -5 12 -9 26 -9 14 0 23 4 19
9 -3 5 -1 12 5 16 6 4 8 11 5 16 -4 5 -1 9 6 9 7 0 10 3 6 6 -3 3 3 21 14 40
10 19 19 41 19 49 0 8 4 15 9 15 8 0 24 37 22 53 -1 4 3 7 9 7 5 0 10 7 10 15
0 8 5 15 11 15 5 0 7 5 4 10 -3 6 -2 10 3 10 6 0 13 11 16 25 4 14 11 23 16
20 6 -3 10 1 10 9 0 9 5 16 11 16 5 0 8 3 5 8 -7 11 21 45 32 38 6 -3 8 2 5
14 -3 12 1 22 11 26 9 3 14 10 11 14 -3 5 1 12 8 17 7 4 23 23 36 41 12 17 30
32 39 33 11 0 12 2 4 6 -8 3 25 41 85 99 115 110 143 135 143 128 0 -3 10 4
22 15 12 12 40 33 62 48 23 16 43 31 44 36 2 4 13 7 23 7 11 0 17 5 14 10 -5
9 1 12 21 9 4 0 10 3 13 9 3 5 29 21 56 37 28 15 53 32 57 39 5 7 8 6 8 -4 0
-9 3 -11 8 -5 9 13 72 48 72 40 0 -3 11 2 24 11 14 8 26 15 28 14 2 -1 14 3
28 8 14 5 28 10 33 11 4 0 22 7 41 15 19 8 37 12 40 8 3 -3 6 0 6 6 0 7 3 11
8 10 12 -3 96 14 107 21 6 4 26 8 45 10 19 1 37 5 40 9 3 4 19 7 35 8 17 0 43
4 58 8 22 5 27 4 21 -6 -6 -10 -4 -10 7 -2 8 6 29 10 47 9 17 0 32 2 32 5 0 9
32 6 48 -4 6 -4 12 -3 12 2 0 12 83 9 92 -3 5 -6 8 -6 8 2 0 7 9 10 23 7 12
-3 47 -6 78 -8 30 -1 61 -6 67 -10 7 -4 12 -2 12 5 0 8 4 8 13 2 6 -6 19 -11
27 -11 25 -2 65 -9 65 -12 0 -1 14 -3 30 -5 17 -1 30 -3 30 -4 0 -3 33 -10 63
-15 12 -1 25 -5 28 -9 8 -7 34 18 34 32 0 6 4 11 9 11 5 0 8 8 7 17 -2 10 3
24 11 31 7 8 11 18 8 23 -4 5 -1 9 5 9 6 0 9 4 5 9 -3 5 -1 12 5 16 6 4 8 11
5 16 -4 5 -1 9 6 9 18 0 5 10 -20 15 -23 5 -49 12 -83 21 -13 3 -31 6 -41 6
-9 -1 -15 3 -13 7 3 4 -10 7 -29 6 -19 -1 -35 3 -35 8 0 5 -6 5 -13 -2 -9 -7
-17 -7 -24 0 -6 6 -29 11 -52 12 -22 1 -41 4 -41 7 0 3 -33 6 -73 7 -39 1 -83
4 -97 6 -14 2 -34 0 -46 -4 -11 -4 -27 -4 -35 0 -7 4 -30 5 -49 2z"/>
<path d="M2514 4103 c7 -13 -6 -14 -116 -15 -16 -1 -28 -6 -28 -12 0 -6 -5 -4
-10 4 -5 8 -10 11 -10 5 0 -5 -15 -11 -33 -12 -19 -1 -76 -12 -128 -24 -52
-13 -96 -23 -99 -24 -3 0 -11 -4 -17 -8 -7 -5 -17 -5 -23 -2 -5 3 -10 1 -10
-4 0 -6 -3 -10 -7 -9 -8 1 -21 -3 -93 -34 -89 -37 -100 -43 -100 -50 0 -4 -7
-5 -15 -2 -8 4 -15 2 -15 -3 0 -6 -18 -18 -40 -28 -22 -10 -40 -22 -40 -27 0
-5 -4 -7 -9 -4 -5 4 -11 3 -13 -1 -1 -5 -30 -26 -62 -48 -32 -22 -72 -52 -87
-68 -16 -16 -29 -25 -29 -20 0 4 -5 0 -11 -10 -6 -9 -15 -15 -20 -11 -5 3 -8
1 -7 -3 2 -5 -31 -44 -73 -86 -42 -42 -74 -77 -70 -77 3 -1 -5 -10 -18 -20
-13 -11 -20 -20 -16 -20 3 0 -1 -7 -9 -16 -9 -8 -13 -20 -10 -26 4 -6 2 -8 -4
-4 -6 3 -13 -2 -17 -13 -3 -10 -16 -30 -28 -43 -25 -27 -73 -118 -69 -131 1
-5 -2 -6 -7 -3 -8 6 -26 -40 -22 -57 1 -5 -3 -6 -9 -2 -5 3 -10 -1 -10 -9 0
-9 -5 -16 -11 -16 -5 0 -8 -4 -4 -10 3 -5 -2 -26 -11 -47 -10 -21 -18 -40 -18
-43 -1 -3 -4 -9 -7 -15 -8 -13 -23 -68 -21 -77 1 -5 -4 -8 -12 -8 -12 0 -10
12 9 60 13 33 21 60 18 60 -3 0 0 7 7 15 6 8 8 20 4 26 -4 8 -3 9 4 5 10 -6
17 6 10 17 -1 1 5 13 12 27 8 14 13 28 12 33 -1 4 3 7 8 7 5 0 9 3 8 8 -3 14
28 72 35 65 4 -3 7 3 7 15 0 12 5 22 10 22 6 0 10 7 10 15 0 8 9 24 20 35 11
11 21 23 22 28 2 4 7 6 12 4 5 -2 6 4 3 12 -4 10 2 20 14 26 11 6 17 14 15 19
-6 8 51 76 132 160 54 55 54 55 33 72 -12 10 -21 20 -21 23 0 3 -12 19 -27 35
-16 16 -34 37 -41 45 -7 9 -17 16 -22 16 -5 0 -34 -25 -65 -55 -30 -30 -53
-55 -51 -55 3 0 -5 -10 -17 -23 -40 -41 -77 -87 -72 -87 6 0 -6 -16 -37 -51
-10 -10 -18 -22 -18 -25 0 -3 -11 -20 -25 -38 -14 -18 -22 -36 -18 -39 3 -4 1
-7 -5 -7 -10 0 -116 -203 -117 -225 -1 -5 -6 -19 -12 -30 -6 -11 -16 -38 -23
-60 -7 -22 -17 -46 -23 -52 -5 -7 -7 -13 -4 -13 3 0 -1 -24 -10 -52 -8 -29
-16 -57 -17 -63 -1 -5 -5 -15 -9 -22 -4 -6 -2 -15 4 -19 8 -5 8 -9 -1 -14 -7
-4 -13 -24 -13 -44 -1 -20 -4 -36 -7 -36 -3 0 -6 -17 -7 -37 -1 -21 -4 -72 -8
-113 -8 -86 -8 -198 1 -285 3 -33 7 -72 7 -87 1 -16 4 -28 7 -28 3 0 6 -8 6
-17 1 -29 13 -96 23 -132 6 -18 10 -36 9 -40 -1 -3 2 -15 6 -26 4 -11 12 -31
16 -45 4 -14 11 -34 16 -45 4 -11 8 -24 8 -30 1 -5 13 -35 26 -65 14 -30 25
-57 24 -60 0 -3 22 -45 48 -93 26 -48 48 -90 48 -92 0 -3 7 -13 15 -22 8 -10
16 -22 17 -28 1 -5 12 -20 25 -33 13 -13 23 -27 23 -32 0 -6 8 -18 18 -29 9
-10 31 -35 47 -57 17 -21 41 -49 55 -62 14 -14 24 -28 22 -33 -1 -5 2 -9 6 -9
5 0 39 -29 75 -65 37 -36 67 -63 67 -61 0 3 10 -5 23 -17 44 -41 86 -74 90
-70 2 2 10 -3 17 -12 7 -8 19 -15 27 -15 8 0 11 -5 8 -10 -3 -6 -1 -10 5 -10
6 0 28 -11 49 -24 21 -14 43 -22 47 -18 5 4 2 -1 -5 -10 -7 -10 -20 -18 -28
-18 -8 0 -12 -4 -9 -9 3 -5 -1 -14 -9 -21 -8 -7 -13 -16 -10 -20 3 -5 -5 -16
-17 -24 -12 -9 -19 -16 -14 -16 5 0 2 -8 -6 -17 -22 -25 -32 -63 -18 -63 7 0
25 -9 41 -21 16 -11 29 -17 29 -14 0 3 13 -3 29 -14 15 -11 31 -18 35 -14 3 3
6 1 6 -5 0 -7 9 -12 20 -12 11 0 20 -5 20 -10 0 -6 6 -10 13 -8 6 1 27 -6 44
-15 18 -10 34 -17 35 -17 4 2 37 -10 63 -20 49 -20 118 -39 126 -34 5 3 9 1 9
-4 0 -5 19 -13 43 -17 23 -4 47 -9 52 -10 6 -2 26 -6 45 -9 19 -4 49 -9 65
-12 29 -6 42 -7 175 -20 128 -12 317 -7 338 9 8 6 12 6 12 -1 0 -6 13 -7 38
-2 39 9 128 23 150 23 6 0 12 3 12 7 0 3 8 6 18 7 43 3 85 13 98 24 8 6 17 9
20 6 4 -3 48 9 100 28 52 18 94 31 94 28 0 -2 7 3 16 11 8 9 20 14 25 11 5 -4
9 -1 9 4 0 6 6 11 13 11 8 0 48 18 90 40 42 22 77 36 77 33 0 -4 9 3 20 15 12
12 27 22 35 22 8 0 15 4 15 8 0 5 12 15 28 23 27 14 82 49 92 59 3 3 23 18 45
35 22 16 47 37 56 47 9 10 20 18 24 18 3 0 22 16 41 35 19 20 34 33 34 31 0
-3 26 23 58 57 31 34 63 66 70 70 7 5 10 12 7 17 -3 5 4 12 16 15 11 4 18 9
16 11 -2 3 9 20 25 39 17 18 30 36 29 39 0 3 13 20 29 38 17 18 30 38 30 45 0
7 5 13 10 13 6 0 10 7 10 15 0 8 5 15 10 15 6 0 10 7 10 15 0 8 4 15 9 15 5 0
13 10 17 23 4 12 10 24 13 27 11 9 91 170 85 170 -4 0 0 8 9 18 10 10 14 22
10 25 -3 4 -1 7 5 7 7 0 11 3 10 8 -3 6 21 79 42 127 17 39 34 100 32 118 0 9
2 15 6 13 4 -3 8 3 8 12 1 24 20 127 24 127 1 0 4 18 6 40 3 22 8 54 12 70 5
17 8 54 7 83 0 28 2 52 6 52 3 0 6 56 6 125 -1 69 -3 125 -7 125 -3 0 -6 21
-6 48 -1 68 -7 122 -14 122 -3 0 -5 12 -6 28 0 15 -4 45 -8 67 -4 22 -10 55
-13 73 -4 26 -8 30 -19 21 -7 -6 -18 -8 -24 -4 -5 3 -10 2 -10 -2 0 -9 -98
-50 -106 -45 -11 7 -31 -26 -28 -48 1 -14 3 -25 4 -25 2 0 9 -35 13 -65 2 -14
5 -30 8 -35 3 -6 4 -31 4 -57 -1 -27 3 -48 8 -48 5 0 3 -8 -4 -17 -8 -9 -9
-14 -3 -10 7 4 12 -2 12 -18 0 -16 -5 -22 -12 -18 -8 5 -8 3 0 -8 16 -19 15
-171 0 -162 -6 4 -5 0 2 -9 10 -13 11 -22 2 -37 -7 -15 -7 -21 0 -21 7 0 8 -6
2 -17 -5 -10 -8 -37 -8 -60 1 -24 -1 -43 -4 -43 -3 0 -7 -16 -8 -35 -2 -20 -7
-47 -13 -62 -5 -14 -7 -28 -5 -31 3 -2 -1 -19 -9 -37 -7 -19 -11 -36 -8 -39 3
-3 0 -12 -7 -21 -7 -8 -9 -15 -6 -15 4 0 2 -9 -4 -21 -6 -11 -13 -29 -16 -40
-2 -10 -6 -28 -8 -38 -4 -18 -22 -59 -74 -171 -12 -25 -33 -64 -47 -87 -14
-24 -23 -43 -18 -43 4 0 3 -4 -2 -8 -6 -4 -28 -34 -50 -67 -21 -33 -43 -63
-49 -67 -6 -4 -8 -8 -4 -8 4 0 -3 -11 -15 -24 -47 -50 -71 -81 -69 -88 1 -5
-5 -8 -13 -8 -8 0 -15 2 -15 5 0 5 60 82 111 143 10 12 16 22 11 22 -4 0 -2 4
4 8 14 10 84 125 84 139 0 6 4 13 8 15 5 2 24 35 43 73 33 69 35 75 38 95 0 6
10 19 21 30 11 11 15 20 9 20 -8 0 -7 6 2 17 12 15 12 16 -1 8 -12 -7 -13 -6
-4 6 13 16 57 154 59 184 1 11 4 27 7 35 13 36 24 99 23 133 0 20 2 37 6 37 4
0 7 17 7 38 2 208 1 267 -4 327 -3 39 -6 85 -7 103 0 17 -3 32 -7 32 -5 0 -10
36 -13 88 0 6 -4 12 -9 12 -5 0 -8 8 -6 18 1 9 -1 23 -5 30 -5 6 -5 12 -1 12
3 0 1 7 -6 15 -7 9 -10 18 -7 22 4 3 2 12 -4 20 -6 7 -9 13 -6 13 3 0 0 15 -8
34 -8 18 -11 36 -8 40 4 3 1 6 -5 6 -7 0 -12 6 -12 13 0 8 -10 38 -22 69 -25
60 -32 62 -80 19 -14 -12 -30 -24 -34 -25 -5 0 -24 -16 -42 -34 -33 -31 -34
-33 -18 -57 9 -14 14 -25 10 -25 -3 0 1 -11 10 -25 11 -17 13 -25 4 -25 -6 0
-3 -7 8 -15 10 -8 16 -15 11 -15 -4 0 -1 -16 8 -35 10 -25 11 -34 2 -29 -9 5
-9 4 0 -6 6 -7 9 -19 6 -26 -3 -8 0 -14 7 -14 8 0 11 -9 8 -25 -4 -18 -1 -25
11 -26 11 0 12 -2 3 -6 -10 -4 -10 -8 -1 -19 9 -11 8 -14 -7 -14 -16 0 -17 -2
-4 -10 8 -5 16 -20 18 -32 2 -13 5 -39 8 -58 3 -19 5 -52 6 -73 0 -20 4 -40 9
-43 5 -3 6 -10 2 -17 -10 -16 -10 -58 -1 -63 5 -3 5 -10 1 -17 -7 -12 -9 -32
-13 -130 -2 -37 -6 -69 -9 -72 -4 -2 -7 -16 -6 -32 0 -15 -4 -31 -10 -35 -6
-5 -4 -8 5 -8 11 0 12 -2 3 -8 -7 -4 -13 -24 -15 -45 -1 -20 -6 -37 -11 -37
-5 0 -7 -6 -4 -14 3 -7 0 -19 -6 -25 -6 -6 -7 -11 -3 -11 5 0 1 -12 -9 -26
-11 -18 -12 -24 -4 -18 11 6 12 5 2 -8 -7 -8 -10 -18 -6 -21 3 -4 1 -7 -5 -7
-7 0 -12 -11 -12 -24 0 -14 -5 -28 -10 -31 -6 -4 -8 -11 -5 -16 4 -5 1 -9 -4
-9 -6 0 -11 -6 -11 -13 0 -7 -10 -30 -21 -52 -12 -22 -21 -42 -21 -45 1 -8
-59 -109 -68 -115 -19 -12 -18 13 1 33 11 12 16 22 12 22 -4 0 2 7 13 16 10 8
12 12 5 8 -10 -5 -8 2 5 22 23 34 89 186 100 229 4 17 11 36 17 43 5 7 7 15 4
19 -4 3 -3 11 2 17 6 6 12 25 15 41 2 17 5 30 6 30 2 0 4 11 5 25 2 14 6 39
10 55 4 17 8 41 9 55 1 14 5 31 9 38 5 7 3 12 -5 12 -9 0 -9 3 -2 8 15 10 15
322 1 322 -7 0 -7 4 1 12 14 14 16 32 4 24 -5 -3 -9 8 -10 25 0 17 -6 36 -12
44 -8 9 -8 15 0 20 7 4 7 12 0 25 -6 11 -9 23 -9 27 1 4 -3 21 -10 37 -6 16
-13 41 -15 55 -2 14 -10 42 -18 61 -8 19 -16 38 -16 43 -5 21 -8 30 -20 60 -7
16 -9 33 -6 39 4 7 2 8 -4 4 -8 -5 -12 0 -12 13 0 12 -3 21 -8 21 -4 0 -16 20
-27 45 -11 25 -24 45 -28 45 -5 0 -5 5 -2 10 3 6 1 10 -4 10 -6 0 -11 6 -11
13 0 12 -10 27 -50 75 -6 6 -8 12 -5 12 4 0 0 6 -7 14 -7 7 -20 24 -28 36 -23
34 -80 99 -137 157 -29 30 -53 58 -53 64 0 6 -4 8 -9 4 -5 -3 -17 5 -25 17 -9
12 -16 19 -16 14 0 -5 -11 3 -25 18 -13 14 -27 26 -30 26 -5 0 -16 8 -48 36
-7 5 -28 19 -47 30 -19 10 -39 25 -43 32 -5 7 -12 10 -18 7 -5 -4 -9 -3 -9 2
0 4 -25 19 -55 33 -30 14 -55 29 -55 33 0 5 -4 5 -10 2 -5 -3 -10 -1 -10 4 0
6 -3 10 -7 9 -15 -3 -63 14 -59 21 3 4 -7 8 -21 9 -14 1 -33 8 -41 15 -8 6
-17 11 -19 10 -1 -2 -4 -3 -5 -2 -13 4 -45 10 -55 11 -7 1 -13 5 -13 10 0 5
-4 6 -10 3 -5 -3 -16 -3 -22 2 -14 8 -28 12 -69 18 -15 2 -44 8 -65 13 -22 5
-47 8 -57 6 -9 -1 -17 1 -17 5 0 4 -7 8 -15 8 -8 0 -15 -5 -15 -11 0 -7 -3 -7
-8 -1 -9 13 -22 15 -95 16 -34 1 -68 6 -76 13 -12 8 -13 8 -7 -1z m71 -212
c82 -3 109 -6 124 -15 10 -6 12 -5 7 2 -4 7 -2 12 3 12 6 0 11 -3 11 -7 0 -5
19 -9 42 -10 23 -2 44 -6 47 -10 3 -5 15 -9 26 -9 28 -2 66 -10 95 -22 14 -5
27 -10 30 -10 3 0 18 -5 33 -11 16 -6 33 -11 38 -11 5 0 9 -6 9 -12 0 -9 4 -8
10 2 5 8 10 10 10 4 0 -10 98 -59 113 -56 4 1 7 -2 7 -6 0 -5 18 -17 40 -28
22 -10 40 -22 40 -26 0 -5 5 -8 10 -8 6 0 20 -9 32 -20 12 -11 28 -20 35 -20
8 0 11 -4 8 -10 -3 -5 -1 -10 4 -10 13 0 39 -21 95 -75 22 -22 44 -39 49 -37
4 1 7 -2 7 -7 0 -4 14 -22 30 -39 17 -18 30 -37 30 -42 0 -6 5 -8 10 -5 6 3
10 0 10 -9 0 -8 4 -16 9 -18 5 -1 36 -46 70 -98 33 -52 65 -100 71 -107 5 -7
10 -16 10 -21 0 -4 10 -28 22 -53 11 -24 21 -50 21 -56 0 -7 4 -13 9 -13 4 0
8 -9 8 -20 0 -11 4 -20 9 -20 5 0 8 -8 6 -17 -1 -10 4 -30 11 -45 8 -15 14
-38 14 -51 0 -13 3 -27 7 -31 8 -8 9 -13 11 -69 1 -21 5 -36 10 -34 4 3 7 -11
6 -31 0 -21 3 -52 7 -70 4 -17 3 -35 -2 -38 -5 -3 -5 -13 1 -23 5 -10 7 -21 3
-24 -3 -4 0 -13 6 -21 9 -11 9 -16 0 -22 -8 -5 -9 -3 -4 6 5 9 4 11 -3 6 -9
-5 -9 -13 0 -29 14 -26 14 -27 -4 -38 -9 -6 -10 -9 -1 -9 9 0 10 -7 4 -22 -4
-13 -7 -38 -6 -55 0 -18 -3 -33 -8 -33 -4 0 -6 -3 -3 -8 5 -9 -8 -75 -34 -172
-7 -25 -13 -51 -13 -57 0 -7 -4 -13 -9 -13 -4 0 -8 -7 -8 -16 0 -8 -10 -36
-22 -62 -11 -26 -21 -53 -21 -59 0 -7 -4 -13 -8 -13 -4 0 -11 -10 -15 -22 -3
-13 -13 -31 -22 -40 -8 -10 -11 -18 -6 -18 5 0 5 -4 -1 -8 -12 -8 -55 -69 -55
-77 0 -3 -18 -28 -40 -56 -22 -28 -40 -55 -40 -60 0 -6 -4 -8 -8 -5 -4 2 -16
-8 -27 -23 l-18 -28 -56 45 c-31 25 -58 49 -59 54 -2 4 -8 6 -13 2 -5 -3 -12
2 -15 10 -9 22 -21 20 -50 -9 -14 -14 -29 -25 -35 -25 -6 0 -7 -4 -4 -10 3 -5
2 -10 -3 -10 -5 0 -20 -9 -33 -20 -12 -12 -38 -30 -56 -41 -18 -11 -33 -25
-33 -30 0 -5 -7 -9 -15 -9 -15 0 -24 -6 -58 -36 -7 -6 -20 -10 -30 -8 -9 1
-15 -2 -11 -7 5 -8 -9 -13 -28 -10 -5 0 -8 -3 -8 -9 0 -6 -3 -9 -7 -8 -5 1
-18 -3 -29 -10 -12 -6 -24 -8 -28 -5 -3 3 -6 1 -6 -5 0 -7 -8 -12 -18 -12 -10
0 -22 -3 -26 -7 -4 -5 -11 -8 -14 -9 -4 0 -15 -4 -25 -9 -10 -4 -20 -5 -24 -2
-3 3 -12 -1 -20 -9 -8 -8 -18 -12 -23 -9 -5 3 -12 0 -16 -6 -4 -8 -9 -7 -15 2
-6 10 -9 11 -9 2 0 -7 -10 -13 -23 -13 -13 0 -29 -6 -36 -12 -11 -11 -12 -10
-6 1 6 11 3 13 -16 7 -29 -9 -200 -15 -214 -7 -5 3 -21 7 -33 9 -17 2 -22 -1
-16 -10 6 -10 5 -11 -7 -1 -8 6 -27 14 -42 17 -15 3 -39 8 -54 11 -14 3 -35
11 -46 16 -14 8 -17 8 -13 0 5 -7 1 -9 -8 -5 -9 3 -16 10 -16 14 0 5 -8 7 -17
6 -10 -2 -25 0 -33 5 -25 12 -84 36 -107 44 -13 3 -23 11 -23 16 0 6 -4 8 -9
4 -5 -3 -12 -1 -16 5 -4 6 -10 8 -14 5 -5 -2 -16 4 -26 15 -10 11 -21 17 -26
15 -4 -3 -12 3 -18 12 -6 10 -11 14 -11 9 0 -4 -20 8 -44 28 -24 20 -47 36
-51 36 -3 0 -16 11 -29 25 -13 13 -25 23 -27 20 -3 -2 -13 9 -24 26 -11 16
-26 29 -32 29 -7 0 -13 5 -13 10 0 6 -14 25 -31 43 -17 17 -45 52 -62 77 -17
25 -34 47 -39 48 -4 2 -8 9 -8 17 0 7 -7 18 -15 25 -9 7 -14 19 -11 27 3 7 2
13 -2 13 -4 0 -16 14 -25 30 -10 17 -16 30 -12 30 3 0 -2 11 -10 24 -9 13 -17
32 -20 42 -2 11 -11 36 -19 57 -9 20 -13 37 -10 37 4 0 1 6 -5 13 -6 8 -12 35
-13 60 -2 26 -6 47 -9 47 -12 0 -17 40 -6 40 8 0 8 3 2 8 -6 4 -10 17 -9 30 1
12 -3 25 -8 28 -5 3 -4 12 3 20 8 10 8 14 0 14 -13 0 -10 22 4 32 6 5 5 8 -4
8 -11 0 -11 3 0 17 12 14 12 15 1 9 -11 -7 -12 -4 -3 13 7 11 8 21 3 21 -4 0
-8 9 -8 20 0 11 3 20 6 20 3 0 6 15 6 33 1 32 8 84 20 142 8 42 10 48 18 67 4
9 9 22 10 30 7 39 30 98 38 98 5 0 7 4 3 9 -3 5 -1 12 5 16 6 4 8 11 5 16 -4
5 -2 9 2 9 5 0 15 16 22 35 7 19 17 35 22 35 5 0 8 3 7 8 -4 11 68 123 75 116
3 -3 8 4 12 15 3 12 11 21 16 21 6 0 8 3 6 8 -2 4 29 40 70 79 40 40 73 71 73
68 0 -5 9 2 68 53 15 12 35 25 45 28 9 3 17 10 17 15 0 6 4 8 9 4 6 -3 14 2
19 11 5 9 11 16 13 15 14 -2 49 13 49 21 0 5 5 6 10 3 6 -3 10 -1 10 4 0 6 3
10 8 9 4 -1 21 4 37 11 61 25 135 49 135 44 0 -3 7 0 15 7 9 7 18 10 22 7 3
-4 14 -2 24 3 9 6 37 12 61 14 24 3 43 6 43 7 0 1 20 3 45 4 25 1 45 4 45 5 0
1 10 3 23 4 12 2 22 -1 22 -6 0 -5 8 -4 18 1 13 7 23 6 32 -2 10 -10 12 -8 7
6 -4 9 -3 17 1 17 4 0 8 17 9 38 1 20 5 60 8 88 l6 50 -98 -3 c-85 -2 -123 -6
-143 -13 -3 -1 -17 -1 -32 0 -16 1 -28 -2 -28 -7 0 -5 -20 -9 -44 -8 -25 0
-43 -2 -40 -6 2 -4 -9 -9 -24 -12 -15 -3 -38 -8 -52 -12 -14 -4 -31 -7 -37 -7
-7 -1 -13 -5 -13 -9 0 -5 -7 -6 -15 -3 -8 4 -15 1 -15 -5 0 -6 -5 -11 -11 -11
-25 0 -196 -85 -210 -104 -4 -5 -14 -6 -23 -3 -9 4 -15 2 -13 -4 1 -6 -13 -19
-30 -28 -18 -10 -30 -21 -26 -25 3 -3 1 -6 -5 -6 -6 0 -24 -12 -41 -26 -17
-14 -36 -22 -42 -18 -8 4 -9 3 -5 -5 9 -14 -20 -45 -34 -36 -6 4 -10 3 -9 -2
1 -4 1 -15 0 -22 -1 -12 -4 -12 -13 -3 -9 9 -3 20 25 47 20 19 39 35 43 35 4
0 15 10 25 22 11 11 19 18 19 15 0 -4 8 0 18 9 44 39 78 64 90 64 6 0 12 5 12
10 0 6 3 10 8 9 17 -3 51 14 46 22 -3 5 2 9 11 9 9 0 27 7 40 16 13 9 30 12
37 8 7 -4 10 -3 5 1 -9 11 51 37 66 28 5 -3 7 -1 4 4 -4 6 5 14 21 18 15 5 32
10 37 11 6 2 19 5 30 8 11 2 20 5 20 6 0 4 44 13 73 14 18 0 30 6 28 11 -2 6
15 10 40 10 24 -1 44 4 44 10 0 5 5 3 10 -5 6 -9 10 -10 10 -3 0 7 17 11 43
11 23 0 47 1 52 2 6 1 21 1 34 0 17 -1 21 2 15 12 -6 10 -5 11 7 1 8 -6 37
-12 64 -12z m-1009 -426 c-15 -14 -25 -25 -22 -25 3 0 -7 -13 -22 -29 -37 -41
-52 -59 -52 -65 0 -3 -13 -20 -30 -38 -16 -18 -30 -38 -30 -45 0 -7 -5 -13
-11 -13 -5 0 -7 -4 -4 -10 3 -5 1 -10 -4 -10 -6 0 -11 -5 -11 -11 0 -6 -9 -23
-20 -39 -11 -15 -17 -30 -13 -34 3 -3 2 -6 -3 -6 -11 0 -40 -69 -36 -84 2 -5
-4 -6 -11 -3 -11 4 -13 0 -10 -14 3 -10 1 -25 -5 -32 -10 -12 -55 -162 -55
-184 0 -7 -3 -13 -7 -13 -3 0 -6 -10 -7 -22 -1 -31 -16 -146 -23 -173 -1 -5
-1 -13 0 -17 6 -20 5 -34 -5 -40 -6 -5 -5 -8 3 -8 9 0 10 -5 3 -19 -6 -10 -8
-21 -4 -25 3 -3 8 -29 10 -58 4 -68 11 -133 13 -133 2 0 8 -35 12 -75 2 -14 6
-27 10 -30 3 -3 8 -18 11 -35 3 -16 12 -50 22 -75 9 -25 17 -52 18 -60 1 -8 4
-17 7 -20 12 -12 30 -51 30 -65 0 -8 5 -15 10 -15 6 0 10 -6 10 -13 0 -17 113
-198 143 -231 81 -86 117 -128 117 -138 0 -6 3 -8 7 -5 3 4 19 -7 35 -23 15
-16 28 -27 28 -25 0 3 12 -6 28 -20 15 -15 50 -40 77 -56 28 -16 46 -29 40
-29 -5 0 6 -8 25 -17 19 -10 41 -24 48 -33 10 -11 12 -11 6 -1 -5 10 2 8 22
-5 35 -24 103 -55 126 -58 3 -1 10 -4 14 -8 4 -5 16 -8 26 -8 10 0 18 -5 18
-11 0 -6 6 -9 13 -6 6 2 27 -2 46 -9 18 -8 44 -14 57 -14 13 0 24 -4 24 -8 0
-5 15 -8 33 -7 17 1 37 -1 42 -4 6 -3 21 -7 35 -7 14 -1 26 -3 28 -4 5 -6 27
-5 32 1 3 3 14 -3 25 -14 20 -20 20 -20 -2 -8 -18 9 -23 9 -23 -1 0 -8 -3 -9
-8 -3 -8 11 -40 18 -89 19 -18 0 -33 3 -33 7 0 20 -35 -1 -38 -22 -2 -13 -6
-31 -9 -39 -3 -8 -8 -28 -10 -45 -3 -16 -8 -37 -13 -45 -12 -22 17 -46 49 -42
13 2 28 -2 32 -10 7 -10 9 -10 9 0 0 10 5 10 22 1 28 -15 448 -13 448 2 0 3
15 5 34 4 19 0 32 3 29 9 -4 5 3 7 15 4 12 -4 22 -2 22 2 0 5 9 7 20 5 11 -2
20 1 20 6 0 6 4 8 9 5 7 -5 26 0 91 22 8 3 18 6 23 7 4 2 9 4 12 5 3 1 9 3 14
4 5 0 13 4 17 8 4 5 15 8 25 8 10 0 25 7 33 16 9 8 16 12 16 8 0 -3 7 -1 15 6
8 7 15 9 15 5 0 -5 8 -1 18 8 10 10 22 14 25 10 4 -3 7 0 7 7 0 7 3 10 6 7 4
-4 19 2 34 13 16 11 31 20 35 20 4 0 21 10 38 22 18 13 36 23 40 23 4 0 12 7
17 15 5 8 10 11 10 6 0 -5 11 3 25 18 14 15 25 23 25 19 0 -4 7 1 16 12 8 11
20 20 27 20 7 1 11 6 10 13 -2 7 4 9 14 5 10 -4 14 -2 10 4 -4 5 5 15 19 22
14 6 22 16 19 21 -3 6 -2 10 4 10 12 0 111 101 111 113 0 5 5 5 10 2 6 -3 10
1 10 10 0 8 7 18 15 21 8 4 15 12 15 19 0 7 11 20 24 31 14 10 23 21 21 24 -2
3 7 19 20 34 13 15 26 33 28 39 2 6 9 7 17 2 10 -6 10 -11 -4 -21 -11 -8 -15
-18 -10 -26 4 -7 4 -10 -1 -6 -4 4 -21 -12 -38 -35 -17 -23 -35 -45 -41 -49
-6 -4 -7 -8 -3 -8 4 0 2 -6 -5 -14 -7 -8 -16 -12 -20 -9 -5 2 -8 -3 -8 -12 0
-8 -7 -18 -15 -21 -8 -4 -15 -10 -15 -15 0 -12 -113 -121 -172 -167 -27 -20
-48 -40 -48 -45 0 -4 -4 -6 -9 -3 -12 8 -44 -31 -36 -43 3 -6 13 -11 21 -11 8
0 14 -7 14 -16 0 -8 5 -12 10 -9 6 3 10 -2 10 -11 0 -10 3 -15 6 -11 4 3 24
-12 45 -33 22 -22 39 -33 39 -25 0 8 8 12 20 10 15 -3 20 2 20 16 0 11 5 17
10 14 6 -3 10 -1 10 5 0 6 5 8 10 5 6 -3 10 1 10 10 0 9 4 14 9 10 6 -3 15 3
20 14 6 11 20 23 32 26 11 4 18 9 16 12 -3 2 16 23 41 46 48 43 57 52 71 76 5
8 14 10 20 6 9 -5 7 -12 -8 -26 -12 -11 -21 -25 -21 -31 0 -6 -2 -9 -5 -6 -3
3 -36 -25 -73 -61 -65 -63 -213 -181 -228 -181 -4 0 -13 -8 -21 -17 -10 -12
-12 -13 -8 -3 4 8 -2 5 -13 -7 -11 -12 -22 -19 -26 -16 -3 4 -6 1 -6 -6 0 -7
-4 -9 -10 -6 -5 3 -10 1 -10 -5 0 -6 -4 -9 -9 -5 -6 3 -14 -3 -20 -12 -5 -10
-13 -17 -18 -17 -4 1 -43 -15 -85 -36 -42 -21 -79 -36 -82 -32 -3 3 -6 -1 -6
-8 0 -7 -3 -11 -6 -7 -4 3 -19 0 -35 -9 -16 -8 -29 -11 -29 -8 0 4 -8 0 -18
-9 -10 -10 -21 -15 -24 -12 -3 3 -21 -2 -41 -10 -21 -8 -37 -13 -37 -10 0 4
-6 3 -12 -2 -16 -9 -36 -14 -65 -16 -13 0 -23 -4 -23 -7 0 -4 -6 -7 -12 -8
-29 -2 -105 -12 -128 -17 -69 -16 -384 -24 -440 -11 -14 3 -35 7 -48 10 -12 3
-27 8 -34 12 -7 4 -8 3 -4 -5 6 -9 0 -10 -21 -5 -15 4 -37 8 -48 8 -11 1 -23
6 -27 12 -4 6 -19 9 -33 6 -14 -2 -25 0 -25 5 0 5 -14 10 -31 11 -17 1 -40 7
-50 13 -11 5 -24 7 -29 4 -6 -3 -10 -1 -10 6 0 7 -3 10 -6 6 -4 -3 -19 0 -34
8 -15 8 -30 11 -34 8 -3 -4 -6 -1 -6 6 0 6 -6 11 -12 9 -7 -1 -35 9 -63 22
-27 13 -53 23 -57 22 -5 -1 -8 2 -8 8 0 5 -7 10 -15 10 -8 0 -15 4 -15 10 0 5
-7 7 -15 4 -8 -4 -15 -2 -15 4 0 5 -11 13 -25 16 -27 7 -34 26 -10 26 8 0 15
-5 15 -11 0 -5 4 -8 8 -5 5 3 27 -6 51 -20 24 -13 49 -24 57 -24 8 0 14 -4 14
-10 0 -5 7 -10 16 -10 9 0 12 -5 8 -12 -6 -10 -4 -10 8 0 10 8 17 9 20 2 1 -5
13 -12 25 -14 12 -3 31 -10 42 -16 12 -6 21 -7 21 -3 0 4 4 3 8 -2 6 -9 169
-55 207 -59 6 -1 13 -5 17 -11 5 -6 8 -4 8 5 0 10 3 11 8 3 4 -6 30 -13 57
-15 28 -2 55 -6 60 -10 6 -3 27 -5 48 -4 20 1 37 -3 37 -9 0 -5 5 -3 10 5 5 8
10 10 10 4 0 -6 7 -11 16 -11 13 0 15 7 9 41 -4 23 -7 47 -8 54 0 6 -3 12 -7
12 -3 0 -6 10 -7 22 -4 42 -25 78 -47 79 -11 0 -34 3 -51 5 -16 2 -48 6 -69 9
-22 2 -42 8 -45 12 -3 4 -24 9 -45 11 -22 1 -42 6 -45 11 -4 4 -14 7 -23 5
-10 -1 -18 2 -18 8 0 6 -7 8 -15 5 -8 -4 -17 -2 -19 2 -5 7 -24 13 -85 27 -8
1 -17 8 -21 14 -4 6 -15 8 -25 4 -13 -5 -16 -4 -11 4 4 7 2 13 -3 13 -20 3
-26 4 -58 19 -18 8 -33 18 -33 22 0 5 -8 8 -18 8 -10 0 -29 10 -42 22 -14 13
-25 21 -25 18 0 -8 -145 92 -145 101 0 5 -4 8 -9 7 -11 -3 -18 3 -136 119 -50
48 -101 103 -115 122 -14 18 -35 44 -47 57 -13 12 -23 30 -23 39 0 8 -7 15
-15 15 -8 0 -14 3 -13 8 3 8 -52 104 -65 113 -5 3 -9 9 -9 12 0 19 -12 47 -19
47 -5 0 -9 6 -9 13 0 7 -11 37 -25 66 -14 28 -23 56 -20 62 4 5 2 9 -3 9 -9 0
-23 34 -27 65 -1 6 -7 21 -12 35 -6 14 -9 28 -6 33 2 4 -1 7 -7 7 -6 0 -8 5
-5 10 3 6 3 15 -1 22 -7 12 -15 53 -17 91 -1 9 -4 17 -8 17 -3 0 -5 11 -4 25
2 14 -1 28 -6 31 -6 3 -5 11 2 20 6 8 8 14 3 14 -10 0 -13 47 -17 203 -1 53 1
97 4 97 3 0 6 15 6 33 1 30 4 61 18 147 11 69 13 75 26 72 10 -3 10 0 -1 12
-7 9 -8 16 -3 16 6 0 15 -10 21 -22 6 -13 11 -17 11 -10 1 7 6 10 12 6 23 -14
180 -22 167 -8 -12 11 55 190 77 206 5 4 7 8 2 8 -4 0 -1 13 8 30 8 16 16 33
16 37 0 5 10 18 21 31 12 12 18 22 14 22 -4 0 6 17 23 39 17 21 28 41 24 45
-3 3 -2 6 4 6 6 0 22 17 36 38 14 20 46 60 71 87 25 28 46 54 46 60 0 5 5 4
12 -3 9 -9 5 -17 -16 -37z m-526 -515 c0 -5 -4 -10 -10 -10 -5 0 -10 5 -10 10
0 6 5 10 10 10 6 0 10 -4 10 -10z m2431 -1391 c-17 -18 -34 -30 -37 -27 -3 3
10 20 28 36 42 40 49 33 9 -9z m-46 -50 c-4 -5 -13 -9 -21 -9 -8 0 -13 -6 -11
-12 1 -7 -4 -12 -10 -10 -7 1 -13 -2 -13 -8 0 -5 -5 -10 -10 -10 -6 0 -21 -10
-34 -23 -13 -13 -37 -29 -55 -36 -17 -8 -28 -17 -25 -22 3 -5 -3 -6 -12 -2
-12 4 -15 3 -10 -6 4 -6 4 -11 -1 -10 -11 3 -63 -23 -63 -31 0 -4 -7 -7 -15
-7 -8 0 -15 4 -15 9 0 4 7 8 15 8 8 0 15 5 15 11 0 5 4 8 9 4 5 -3 16 1 24 9
8 9 36 27 62 41 50 29 74 46 116 85 14 14 32 24 39 22 8 -3 10 0 5 8 -5 9 -4
11 4 6 6 -4 9 -12 6 -17z m-314 -188 c6 9 9 10 9 2 0 -12 -17 -26 -35 -29 -24
-4 -40 -9 -45 -14 -10 -10 -70 -28 -70 -21 0 7 61 33 89 37 8 2 19 11 25 21 7
13 11 14 14 4 4 -11 6 -11 13 0z m-151 -73 c0 -7 -32 -12 -52 -9 -5 0 -8 -4
-8 -10 0 -6 -7 -9 -15 -6 -8 4 -17 2 -20 -3 -3 -5 -14 -7 -25 -5 -11 2 -20 -1
-20 -7 0 -6 -3 -8 -7 -5 -3 4 -12 2 -20 -4 -7 -6 -13 -9 -13 -5 0 3 0 9 0 13
0 4 5 8 12 10 34 7 53 12 56 13 1 2 11 4 22 5 11 1 23 4 28 5 4 1 10 2 15 1 4
0 7 3 7 7 0 4 9 8 20 8 11 0 20 -4 20 -8z m-203 -41 c0 -7 -11 -13 -23 -13
-12 0 -20 4 -18 8 3 5 9 6 14 3 5 -3 11 -1 15 5 8 13 12 13 12 -3z m-57 -12
c0 -10 -8 -14 -22 -11 -13 2 -31 -1 -40 -6 -12 -5 -18 -5 -18 2 0 9 13 13 53
13 9 0 17 4 17 8 0 5 2 9 5 9 3 0 5 -7 5 -15z m-219 -13 c-7 -2 -18 1 -23 6
-8 8 -4 9 13 5 13 -4 18 -8 10 -11z m124 3 c-23 -8 -85 -10 -85 -3 0 4 21 8
48 7 26 0 43 -2 37 -4z"/>
<path d="M2708 3240 c-2 -72 -1 -130 2 -130 3 0 4 -25 3 -56 -2 -42 0 -53 10
-48 9 6 9 4 -1 -8 -15 -19 -14 -86 2 -107 8 -11 8 -13 -1 -8 -15 9 -14 -35 2
-45 7 -5 7 -8 -1 -8 -13 0 -13 -88 -1 -107 5 -8 4 -13 -2 -13 -6 0 -7 -8 -3
-19 4 -11 11 -20 15 -20 5 0 17 -11 27 -24 11 -14 35 -40 55 -60 l36 -36 -61
-60 c-34 -34 -57 -61 -53 -61 4 0 3 -4 -4 -8 -15 -9 -24 -70 -12 -78 6 -3 5
-11 -2 -20 -6 -8 -7 -14 -2 -14 5 0 8 -19 6 -42 -2 -24 -3 -49 -3 -55 0 -7 0
-20 0 -28 0 -8 0 -21 0 -27 0 -7 1 -102 2 -210 2 -109 6 -198 10 -198 13 0
188 179 188 192 0 6 2 9 5 6 4 -4 125 110 125 118 0 2 20 23 45 47 25 24 45
41 45 38 0 -3 12 11 27 32 14 20 32 37 40 37 7 0 12 4 10 8 -1 5 41 51 93 103
52 52 94 97 93 101 -2 4 6 10 17 13 11 4 18 11 15 16 -4 5 -1 9 6 9 13 0 79
69 79 83 0 4 6 5 13 1 6 -4 -73 77 -178 179 -104 103 -193 187 -197 187 -5 0
-8 7 -8 15 0 8 -4 15 -8 15 -5 0 -104 94 -220 210 l-211 209 -3 -129z"/>
<path d="M2584 3313 c-26 -27 -53 -48 -59 -48 -5 0 -10 -5 -10 -11 0 -7 -26
-37 -58 -68 -31 -31 -54 -56 -51 -56 4 0 -10 -13 -31 -30 -21 -16 -35 -30 -32
-30 4 0 -4 -10 -16 -23 -12 -13 -25 -22 -29 -20 -4 2 -9 -6 -13 -17 -3 -11
-13 -20 -21 -20 -8 0 -13 -4 -10 -8 3 -5 -6 -15 -19 -22 -13 -7 -23 -16 -21
-19 1 -3 -5 -14 -16 -23 -10 -10 -18 -15 -18 -10 0 4 -9 -8 -20 -26 -11 -18
-25 -30 -30 -27 -6 3 -10 1 -10 -6 0 -6 -19 -30 -42 -53 -24 -22 -42 -44 -41
-48 2 -5 -2 -8 -7 -8 -13 0 -76 -62 -72 -72 1 -5 -2 -8 -8 -8 -5 0 -34 -26
-65 -57 -51 -52 -54 -59 -39 -70 10 -7 14 -13 10 -13 -4 0 -1 -7 8 -15 8 -8
19 -15 25 -15 6 0 11 -4 11 -9 0 -13 58 -70 64 -63 3 3 6 -1 6 -9 0 -8 14 -23
30 -34 16 -11 30 -26 30 -33 0 -7 5 -10 10 -7 6 3 10 -1 10 -9 0 -9 7 -16 16
-16 8 0 13 -3 11 -7 -3 -5 1 -14 9 -21 8 -7 14 -10 14 -8 0 3 85 -79 188 -182
104 -103 214 -211 245 -240 32 -29 57 -56 57 -58 0 -10 44 -43 57 -44 9 0 10
7 3 25 -6 17 -6 25 1 25 6 0 7 5 3 11 -9 16 -10 129 -1 129 5 0 5 5 1 12 -4 6
-7 112 -7 236 l0 224 -69 69 c-38 38 -63 69 -57 69 7 0 10 2 7 6 -3 3 22 33
56 67 l61 63 0 74 c0 41 -4 81 -8 88 -5 6 -4 12 0 12 8 0 10 55 3 70 -6 13 -5
37 2 52 5 9 4 19 -2 23 -6 3 -6 15 0 30 5 14 5 27 1 30 -7 4 -8 40 -1 40 1 0
3 10 4 23 2 12 -2 22 -7 22 -5 0 -4 7 3 15 9 11 9 15 1 15 -9 0 -9 5 -1 20 6
11 7 20 2 20 -5 0 -9 7 -9 15 0 8 5 15 11 15 7 0 7 3 1 8 -11 8 -15 62 -4 62
8 0 6 26 -3 35 -3 3 -27 -16 -54 -42z"/>
<path d="M748 3999 c-10 -10 -15 -19 -10 -19 4 0 3 -4 -3 -8 -14 -10 -85 -99
-85 -107 0 -3 -17 -29 -37 -58 -51 -71 -53 -75 -122 -209 -33 -64 -63 -113
-67 -110 -4 4 -4 2 -1 -4 3 -6 0 -23 -8 -37 -8 -15 -14 -30 -15 -32 -1 -13 -6
-28 -19 -60 -7 -16 -14 -34 -15 -40 -2 -5 -6 -18 -10 -27 -4 -9 -9 -22 -10
-30 -6 -29 -19 -74 -25 -83 -3 -5 -6 -14 -7 -20 -1 -5 -5 -26 -9 -45 -3 -19
-9 -37 -13 -40 -4 -3 -8 -23 -10 -45 -2 -22 -4 -50 -5 -62 -1 -13 -5 -23 -9
-23 -4 0 -7 -8 -7 -17 -1 -36 -7 -68 -15 -82 -7 -10 -6 -12 4 -6 10 6 11 4 4
-6 -4 -8 -9 -37 -9 -64 -1 -28 -3 -55 -7 -60 -3 -6 -5 -52 -4 -102 1 -56 -3
-93 -9 -93 -7 0 -7 -3 0 -8 6 -4 10 -34 9 -67 0 -33 4 -66 10 -74 9 -12 8 -13
-3 -6 -10 6 -12 4 -6 -6 5 -7 10 -31 11 -54 1 -22 3 -40 4 -40 1 0 3 -13 4
-30 1 -16 6 -48 11 -70 4 -22 9 -51 10 -65 1 -14 3 -25 4 -25 3 0 12 -35 16
-65 1 -14 4 -25 5 -25 1 0 3 -8 6 -17 2 -10 6 -26 8 -35 3 -10 5 -19 6 -20 2
-2 3 -6 4 -10 14 -60 31 -113 38 -113 4 0 7 -3 7 -7 -1 -5 -1 -10 1 -13 1 -3
4 -16 6 -30 2 -13 9 -27 15 -31 6 -3 10 -10 10 -15 -2 -18 33 -104 43 -104 5
0 6 -3 3 -7 -4 -3 -2 -12 4 -20 6 -7 8 -13 3 -13 -5 0 -4 -4 1 -8 13 -9 61
-104 57 -114 -1 -4 2 -8 7 -8 5 0 13 -9 16 -20 4 -11 18 -34 32 -50 13 -17 22
-30 19 -30 -8 0 85 -134 96 -138 4 -2 8 -8 8 -13 0 -10 22 -38 58 -75 13 -13
20 -24 16 -24 -4 0 5 -11 20 -25 14 -13 26 -27 26 -30 0 -8 193 -198 230 -226
18 -13 43 -34 56 -46 12 -13 27 -23 31 -23 5 0 15 -9 23 -20 8 -11 20 -20 27
-20 7 0 13 -4 13 -10 0 -5 4 -10 10 -10 5 0 19 -8 30 -17 11 -10 22 -16 23
-14 1 3 15 -7 31 -22 16 -15 38 -27 48 -27 11 0 17 -4 14 -9 -5 -8 3 -12 39
-20 6 -1 14 -9 18 -17 5 -8 12 -12 18 -9 5 4 9 2 9 -2 0 -9 74 -45 86 -43 4 1
11 -5 16 -14 5 -9 13 -14 18 -11 5 3 11 1 15 -5 3 -5 15 -10 26 -10 10 0 19
-4 19 -10 0 -5 8 -10 18 -10 10 0 22 -4 28 -9 5 -5 18 -11 29 -13 11 -1 23 -7
26 -11 3 -5 12 -10 20 -11 64 -14 79 -20 79 -29 0 -6 3 -8 6 -4 3 3 18 1 33
-5 25 -9 35 -12 80 -22 10 -2 35 -9 54 -14 20 -6 38 -7 41 -4 3 3 6 1 6 -4 0
-6 17 -11 37 -12 21 -2 40 -6 43 -10 3 -4 16 -7 30 -6 14 1 33 -2 43 -7 12 -7
17 -6 17 3 0 9 3 9 8 2 4 -5 17 -10 30 -11 12 0 23 -2 25 -3 4 -4 89 -10 188
-13 94 -3 155 7 133 21 -9 6 -12 33 -16 140 -1 17 -6 32 -12 32 -6 0 -6 4 2
12 6 6 8 18 3 27 -4 9 -7 25 -7 36 1 20 -11 35 -27 35 -5 0 -5 -6 -1 -13 6 -9
4 -9 -8 1 -9 7 -20 12 -24 11 -5 -1 -13 0 -19 1 -5 1 -36 2 -67 2 -34 1 -58 5
-58 12 0 6 -4 6 -12 -2 -7 -7 -17 -8 -30 -1 -13 7 -18 6 -18 -2 0 -7 -4 -8
-12 -2 -7 5 -26 10 -42 11 -16 1 -36 8 -44 15 -13 10 -14 9 -7 -2 6 -11 5 -12
-6 -5 -8 4 -23 9 -34 10 -27 3 -76 13 -100 21 -25 9 -22 8 -67 17 -21 5 -36
12 -33 16 3 5 -3 7 -12 5 -10 -1 -24 2 -30 8 -7 5 -13 7 -13 3 0 -4 -13 0 -29
8 -16 9 -31 12 -35 9 -3 -4 -6 -1 -6 5 0 7 -11 12 -25 12 -14 0 -25 5 -25 11
0 6 -7 8 -16 5 -8 -3 -12 -2 -9 4 3 6 0 10 -8 10 -25 0 -97 36 -89 45 4 5 2 6
-3 2 -6 -3 -33 8 -60 24 -28 16 -58 32 -67 35 -10 4 -18 11 -18 17 0 6 -3 8
-6 4 -6 -6 -72 38 -85 56 -3 5 -8 7 -10 5 -3 -1 -11 3 -19 10 -8 7 -36 28 -62
46 -26 18 -45 36 -42 38 3 3 -7 8 -21 12 -14 4 -25 13 -25 21 0 8 -4 15 -10
15 -11 0 -161 149 -210 209 -19 24 -41 49 -47 56 -7 8 -13 19 -13 25 0 6 -5 8
-10 5 -6 -3 -10 0 -10 8 0 7 -9 23 -20 35 -11 12 -20 26 -20 32 0 5 -4 10 -10
10 -5 0 -10 4 -10 9 0 5 -17 36 -38 68 -21 32 -49 81 -62 108 -14 28 -29 53
-34 56 -5 4 -6 11 -2 17 3 5 -1 15 -9 22 -8 6 -19 28 -26 48 -6 20 -15 42 -19
47 -4 6 -23 57 -41 115 -18 58 -38 108 -44 112 -7 5 -6 8 2 8 13 0 -5 60 -22
72 -6 5 -6 8 2 8 8 0 7 12 -3 45 -7 25 -13 47 -14 50 0 3 0 6 -1 8 -2 11 -12
127 -11 145 0 12 -4 22 -10 22 -5 0 -6 6 -1 13 11 18 12 36 2 43 -5 3 -9 10
-9 15 0 6 5 7 12 3 7 -5 8 -3 3 6 -12 20 -14 100 -2 100 5 0 4 7 -3 15 -10 12
-10 18 -1 29 8 9 8 16 2 20 -7 5 -7 15 -1 31 7 18 6 25 -2 25 -9 0 -9 3 0 12
7 7 8 17 2 29 -7 11 -7 20 0 24 5 3 10 23 10 44 0 21 3 41 6 44 4 4 8 24 10
44 4 45 11 98 14 98 1 0 3 7 5 15 2 8 6 29 10 45 7 36 8 38 25 95 8 25 16 47
20 50 3 3 6 14 8 25 4 30 18 67 50 135 9 19 17 37 17 40 1 12 40 86 48 91 5 3
8 8 7 10 -2 6 18 51 32 73 7 11 36 53 63 94 28 41 55 82 60 91 6 10 18 25 28
35 25 26 21 45 -19 82 -19 19 -32 34 -29 34 4 0 -12 18 -34 39 -23 22 -41 45
-41 51 0 6 -4 9 -8 6 -5 -3 -15 6 -22 19 -16 29 -29 30 -52 4z"/>
</g>
</svg>
